<svg width="227" height="209" viewBox="0 0 227 209" fill="none" xmlns="http://www.w3.org/2000/svg">
<path d="M157.056 75.2127C159.68 72.3482 159.84 67.2885 159.974 63.2194C160.001 62.3895 160.028 61.6131 160.054 60.9438C160.295 57.3566 160.295 53.7157 160.295 50.2088C160.295 46.7553 160.322 43.1948 160.536 39.7146C160.724 36.7162 160.991 32.6203 158.743 29.381C155.557 24.7497 151.059 24.3481 146.321 24.3481L83.7041 24.3214C83.4631 24.3214 83.1954 24.3214 82.9545 24.3214C79.9294 24.2946 76.5027 24.2946 73.7721 26.3827C70.2651 29.0866 68.873 38.5902 69.0069 59.2305C69.0069 60.0336 69.0069 60.7297 69.0069 61.2651C69.0069 61.6399 69.0069 62.095 68.9801 62.5501C68.8998 66.4854 68.7927 72.4285 72.032 75.8017C74.7626 78.6661 83.0616 78.9874 86.6756 78.9874C87.0236 78.9874 87.3181 78.9874 87.5591 78.9874C96.0722 78.8535 104.103 78.8535 111.84 78.8535C122.87 78.8535 133.284 78.8535 143.43 78.452C144.501 78.3984 145.491 78.3984 146.428 78.3717C150.979 78.2913 154.299 78.211 157.056 75.2127ZM143.269 74.4364C133.203 74.8111 122.816 74.8111 111.813 74.8379C104.05 74.8379 95.9919 74.8379 87.452 74.9718C81.6427 75.0521 75.9941 74.1954 74.8965 73.0175C72.8083 70.8223 72.9154 65.6823 72.969 62.6036C72.969 62.095 72.9957 61.6399 72.9957 61.2383C72.9957 60.7029 72.9957 60.0069 72.9957 59.177C72.969 55.081 72.9422 48.2277 73.4241 41.9098C74.2004 31.5762 75.887 29.7826 76.2082 29.5417C77.6539 28.4173 79.8758 28.3102 82.0978 28.3102C82.3655 28.3102 82.6332 28.3102 82.9009 28.3102C83.1686 28.3102 83.4364 28.3102 83.6773 28.3102L146.294 28.337C150.952 28.337 153.496 28.8189 155.396 31.6298C156.735 33.5841 156.681 36.3415 156.494 39.4469C156.253 43.0342 156.253 46.675 156.253 50.182C156.253 53.6354 156.226 57.1959 156.012 60.6761C155.959 61.4257 155.932 62.2288 155.905 63.0855C155.798 66.3248 155.664 70.742 154.058 72.4821C152.532 74.1419 150.685 74.2489 146.294 74.3293C145.411 74.356 144.394 74.3828 143.269 74.4364ZM124.663 60.462C123.726 63.4603 121.719 66.0303 119.175 67.5027C117.542 68.4397 115.695 68.9216 113.875 68.9216C112.536 68.9216 111.224 68.6539 110.02 68.1452C106.914 66.7799 104.773 63.6745 104.666 60.4352C104.639 59.3376 105.522 58.4006 106.62 58.3739C107.717 58.3471 108.654 59.2305 108.681 60.3281C108.735 62.0415 109.939 63.728 111.626 64.4776C113.313 65.2004 115.427 65.0398 117.141 64.0493C118.827 63.0855 120.139 61.3454 120.808 59.2841C121.13 58.2132 122.281 57.651 123.325 57.9723C124.423 58.2935 125.011 59.4179 124.663 60.462ZM100.57 43.8373C100.73 44.5601 100.463 45.3097 99.8736 45.7916L91.2802 52.8858C90.9054 53.2071 90.4503 53.3409 89.9952 53.3409C89.4063 53.3409 88.8441 53.1 88.4425 52.6181C87.7465 51.7615 87.8535 50.5032 88.7102 49.7804L94.3856 45.0955L87.8 43.1948C86.7292 42.8735 86.1134 41.7759 86.4347 40.7051C86.7559 39.6343 87.8535 39.0185 88.9244 39.3398L99.1776 42.3114C99.8736 42.5255 100.436 43.1145 100.57 43.8373ZM142.332 40.0358C142.68 41.0799 142.091 42.231 141.047 42.5791L133.658 44.9884L139.066 49.2718C139.95 49.9678 140.083 51.226 139.387 52.0827C138.986 52.5914 138.397 52.8591 137.808 52.8591C137.38 52.8591 136.924 52.7252 136.576 52.4307L128.197 45.8183C127.608 45.3632 127.341 44.6136 127.474 43.8908C127.608 43.168 128.117 42.5523 128.84 42.3381L139.816 38.7776C140.86 38.4028 141.984 38.9918 142.332 40.0358ZM80.4916 105.812C80.3845 104.018 80.2506 101.984 79.3404 100.083C78.1893 97.6199 75.9405 96.0672 73.6115 96.1743C71.4698 96.2546 68.8195 97.9679 68.0164 101.475C67.4809 103.857 68.0164 120.322 68.5518 125.595C68.7392 127.336 69.0069 129.156 69.8903 130.816C71.0415 132.957 73.0493 134.323 75.1106 134.376C75.1642 134.376 75.2177 134.376 75.2445 134.376C77.7342 134.376 80.1435 132.476 81.1073 129.691C81.8836 127.469 81.723 125.114 81.5892 123.213L80.4916 105.812ZM77.3594 128.38C76.9578 129.531 76.0476 130.414 75.2713 130.361C74.6555 130.334 73.9059 129.745 73.4508 128.915C72.9154 127.951 72.7012 126.72 72.5674 125.194C71.9517 119.17 71.6304 104.125 71.9517 102.358C72.2194 101.207 73.0493 100.217 73.7989 100.19C74.4414 100.163 75.2712 100.859 75.7264 101.796C76.2885 103.001 76.3956 104.58 76.5027 106.079L77.6539 123.454C77.7342 125.167 77.868 126.934 77.3594 128.38ZM95.7777 99.5474C94.814 97.9144 93.2612 96.7365 91.6282 96.3617C90.3432 96.0672 89.0315 96.2813 87.9606 97.0042C86.6489 97.8608 85.7119 99.4403 85.3371 101.368C85.0426 102.867 85.0694 104.366 85.1229 105.705C85.1765 107.124 85.1497 108.409 85.1497 109.64C85.1497 111.862 85.1229 113.95 85.3639 116.493C85.4442 117.377 85.4977 118.448 85.5245 119.545C85.6583 122.865 85.819 126.639 87.0236 129.317C88.0677 131.592 90.022 133.011 92.0298 133.011C92.3243 133.011 92.592 132.984 92.8865 132.931C94.573 132.583 96.0454 131.137 96.8218 129.102C97.384 127.603 97.5446 126.024 97.6249 124.525C98.0265 118.689 97.9997 112.745 97.5714 106.909C97.4107 104.554 97.1162 101.823 95.7777 99.5474ZM93.6628 124.31C93.5825 125.569 93.4754 126.773 93.1006 127.737C92.7794 128.567 92.3243 128.995 92.0833 129.049C91.8424 129.102 91.1464 128.674 90.718 127.71C89.8346 125.729 89.7007 122.383 89.5669 119.438C89.5133 118.26 89.4866 117.163 89.3795 116.172C89.1653 113.816 89.1653 111.808 89.1921 109.694C89.1921 108.409 89.1921 107.097 89.1653 105.624C89.1385 104.446 89.085 103.242 89.2992 102.198C89.4598 101.341 89.8346 100.618 90.2361 100.377C90.3165 100.324 90.3968 100.27 90.5574 100.27C90.6109 100.27 90.6912 100.27 90.7716 100.297C91.3337 100.431 91.9495 100.939 92.351 101.609C93.2345 103.135 93.4754 105.223 93.6093 107.257C94.0108 112.906 94.0376 118.635 93.6628 124.31ZM112.75 98.8246C111.733 96.8435 109.913 95.5585 108.012 95.4782C105.656 95.3711 103.381 97.1112 102.444 99.708C101.748 101.689 101.881 103.804 101.989 105.491C102.176 108.301 102.283 110.871 102.39 113.334C102.577 117.377 102.738 121.205 103.193 125.81C103.3 126.827 103.755 130.254 105.683 131.753C106.727 132.556 107.985 132.984 109.243 132.984C109.511 132.984 109.779 132.957 110.047 132.931C111.385 132.743 112.509 132.047 113.232 131.003C114.464 129.236 114.731 127.362 114.865 125.595C115.481 118.1 114.812 110.523 113.982 103.483C113.741 101.93 113.5 100.324 112.75 98.8246ZM110.823 125.247C110.689 126.854 110.502 127.817 109.913 128.701C109.779 128.888 109.538 128.942 109.404 128.969C108.976 129.022 108.521 128.888 108.119 128.594C107.825 128.326 107.316 127.014 107.155 125.435C106.727 120.937 106.566 117.189 106.379 113.174C106.272 110.684 106.165 108.114 105.977 105.25C105.87 103.777 105.79 102.278 106.218 101.047C106.513 100.19 107.262 99.4671 107.798 99.4938C108.253 99.5206 108.815 100.002 109.163 100.672C109.618 101.555 109.779 102.706 109.939 103.938C110.743 110.764 111.412 118.1 110.823 125.247ZM131.276 109.024C131.731 109.105 132.186 109.131 132.641 109.131C134.756 109.131 136.817 108.328 138.236 106.856C140.164 104.875 140.779 101.903 139.735 99.4403C138.772 97.1916 136.871 95.5585 134.515 95.0231C132.079 94.4609 129.455 95.1034 127.528 96.7632C125.788 98.2624 124.824 100.538 125.038 102.706C125.333 105.812 127.956 108.462 131.276 109.024ZM130.151 99.8419C130.901 99.1994 131.811 98.8513 132.748 98.8513C133.043 98.8513 133.31 98.8781 133.605 98.9584C134.729 99.2261 135.586 99.949 136.041 101.047C136.443 101.984 136.148 103.269 135.372 104.072C134.569 104.902 133.203 105.303 131.945 105.062C130.446 104.794 129.161 103.617 129.027 102.332C128.947 101.475 129.402 100.511 130.151 99.8419ZM152.907 108.596C153.174 108.596 153.442 108.569 153.737 108.542C155.878 108.328 157.779 107.284 158.93 105.705C160.697 103.295 160.51 99.708 158.529 97.3522C156.628 95.1034 153.281 93.9255 150.363 94.4342C148.008 94.8625 146.187 96.3884 145.384 98.5836C144.501 101.047 145.09 103.938 146.883 105.946C148.329 107.632 150.604 108.596 152.907 108.596ZM149.105 99.9757C149.426 99.0923 150.042 98.5836 151.033 98.3962C152.559 98.1285 154.433 98.7978 155.423 99.949C156.226 100.886 156.333 102.412 155.664 103.322C155.182 103.965 154.299 104.42 153.308 104.527C151.996 104.661 150.631 104.152 149.828 103.269C149.025 102.412 148.73 101.047 149.105 99.9757ZM134.783 116.493C131.544 115.985 129.75 117.136 128.438 118.341C126.966 119.679 126.029 121.847 126.109 123.695C126.189 125.595 127.019 127.336 128.518 128.728C129.616 129.745 131.169 130.575 132.588 130.923C133.043 131.03 133.525 131.083 134.006 131.083C136.282 131.083 138.584 129.852 139.843 127.871C141.261 125.622 141.288 122.597 139.923 120.214C138.718 118.1 136.951 116.815 134.783 116.493ZM136.416 125.756C135.827 126.72 134.542 127.282 133.525 127.041C132.775 126.854 131.865 126.345 131.249 125.81C130.526 125.14 130.151 124.391 130.125 123.534C130.098 122.838 130.553 121.847 131.142 121.312C131.784 120.723 132.347 120.402 133.284 120.402C133.551 120.402 133.819 120.429 134.167 120.482C135.104 120.616 135.827 121.205 136.416 122.222C137.032 123.293 137.032 124.766 136.416 125.756ZM154.566 115.235C151.648 114.753 148.811 115.771 147.204 117.885C145.571 120 145.277 122.999 146.455 125.488C147.365 127.443 149.159 128.995 151.22 129.638C151.943 129.852 152.693 129.959 153.469 129.959C155.477 129.959 157.431 129.183 158.877 127.791C160.884 125.81 161.607 122.731 160.724 120.107C159.814 117.564 157.484 115.717 154.566 115.235ZM156.012 124.926C155.102 125.81 153.603 126.184 152.371 125.783C151.381 125.488 150.497 124.712 150.069 123.775C149.534 122.651 149.667 121.232 150.363 120.322C151.033 119.438 152.13 119.117 153.121 119.117C153.389 119.117 153.656 119.144 153.897 119.17C155.048 119.358 156.414 120.027 156.869 121.366C157.27 122.57 156.922 124.016 156.012 124.926ZM217.371 15.4334C215.176 15.3531 213.168 16.1295 211.883 17.6019C209.554 20.2522 210.009 23.8395 210.384 26.704L210.41 26.811C210.464 27.1323 210.491 27.4535 210.544 27.7748C210.839 29.8897 211.133 31.8975 210.25 33.236C209.286 34.7084 206.341 36.1808 202.138 35.8864C200.077 35.7525 197.4 34.8691 196.597 32.8345C196.088 31.5227 196.677 29.8897 197.373 27.989C198.203 25.7402 199.14 23.1702 198.23 20.4931C197.427 18.0837 195.071 16.3169 192.554 16.183C189.877 16.0224 187.762 18.2444 186.665 20.3593C184.255 25.1245 183.211 29.9432 183.666 34.3604C184.229 39.7414 187.093 44.453 191.296 46.9159C191.457 47.023 191.617 47.1033 191.778 47.1836C191.751 49.8607 191.644 52.8323 191.296 55.5897C190.814 59.6321 189.877 62.7107 188.405 65.2272C188.271 65.4413 188.137 65.6555 188.003 65.8965C186.21 68.6806 184.041 70.7955 181.551 72.2144C179.57 73.3387 177.322 74.0348 174.859 74.3025C174.832 63.8351 174.832 53.2874 174.912 43.0074C175.046 28.5779 172.449 18.3782 167.202 12.676C160.858 5.76916 151.006 3.30625 143.831 2.44958C129.295 0.709478 116.445 0.334686 102.149 1.27167C94.9746 1.72677 86.5685 2.58344 78.6979 5.42114C72.7548 7.56281 64.5629 11.8194 59.3158 19.9042C53.9349 28.2031 53.0247 38.1351 52.5428 48.4419C52.1413 56.9282 51.8735 65.8697 51.7665 74.9985C45.1541 75.1324 38.4078 76.8725 32.1702 80.0315H32.1434C26.0932 83.1101 20.5784 87.5273 16.188 92.7744C14.9833 94.1932 13.8857 95.7192 12.922 97.2719C12.922 97.2719 12.922 97.2719 12.922 97.2986C9.04021 103.536 6.89854 110.925 6.36313 119.866C6.12219 123.962 6.2025 128.487 6.60406 133.627C6.36313 133.814 6.09542 134.028 5.85448 134.216C2.45459 137.134 0.553856 141.872 0.66094 147.173C0.741252 151.643 1.67823 157.506 4.00729 160.612C5.23875 162.245 7.38042 163.289 9.68271 163.342C9.78979 163.342 9.87011 163.342 9.97719 163.342C12.0653 163.342 13.966 162.539 15.1707 161.147C17.4998 158.47 17.0179 154.909 16.6164 152.018L16.5896 151.911C16.536 151.59 16.5093 151.269 16.4557 150.947C16.1345 148.833 15.8668 146.825 16.7234 145.486C17.6872 144.014 20.632 142.541 24.8082 142.782C26.8696 142.916 29.5467 143.773 30.3766 145.807C30.912 147.119 30.2963 148.752 29.627 150.653C28.7971 152.928 27.8869 155.472 28.7971 158.149C29.627 160.531 31.956 162.298 34.4993 162.432C37.2031 162.566 39.2913 160.344 40.3621 158.229C42.7715 153.464 43.7888 148.618 43.3069 144.228C42.7179 138.847 39.8534 134.162 35.6504 131.699C35.4898 131.592 35.3292 131.512 35.1685 131.431C35.1953 128.754 35.2756 125.783 35.5969 123.025C36.0788 118.983 36.989 115.904 38.4346 113.361C38.5684 113.147 38.7023 112.933 38.8361 112.692C40.6298 109.908 42.7982 107.766 45.2611 106.347C47.2422 105.223 49.4642 104.5 51.9271 104.232C52.168 115.342 52.5964 126.211 53.2389 136.357C53.5333 141.149 57.549 144.924 62.3945 144.924C63.037 144.924 63.7063 144.924 64.3488 144.924C59.0214 157.694 57.1206 172.739 58.4056 191.853C54.042 195.467 51.7397 200.473 52.4893 205.399C52.6231 206.363 53.453 207.086 54.4435 207.113C61.5646 207.246 69.0069 207.246 76.235 207.246C83.4363 207.246 90.8786 207.246 97.9461 207.38H97.9729C98.9902 207.38 99.8469 206.604 99.9807 205.587C100.489 200.795 98.1603 195.949 93.9037 192.335C93.6093 172.819 93.877 162.164 100.623 144.656C108.869 144.522 117.168 144.362 125.413 144.094C127.742 148.163 129.536 152.125 130.955 156.087C130.981 156.168 131.008 156.248 131.035 156.328C135.024 167.626 135.72 178.976 135.265 192.844C131.088 196.431 128.893 201.33 129.643 206.149C129.777 207.113 130.607 207.835 131.597 207.862C138.718 207.996 146.16 207.996 153.389 207.996C160.59 207.996 168.032 207.996 175.1 208.13H175.126C176.144 208.13 177 207.354 177.134 206.336C177.643 201.598 175.341 196.779 171.138 193.165C171.753 176.38 171.432 165.029 166.854 151.911C166.828 151.751 166.774 151.59 166.694 151.429C165.65 148.511 164.391 145.486 162.892 142.274C164.097 142.193 165.275 142.113 166.479 142.033C171.191 141.685 174.912 137.696 174.966 132.984C175.046 123.32 175.046 113.415 175.046 103.59C181.632 103.456 188.351 101.769 194.589 98.6104C194.589 98.6104 194.616 98.6104 194.616 98.5836C200.666 95.5318 206.207 91.1413 210.625 85.8943C211.829 84.4754 212.927 82.9495 213.891 81.3968C213.891 81.3968 213.891 81.3968 213.891 81.37C217.799 75.1324 219.968 67.7704 220.557 58.829C220.824 54.733 220.744 50.2087 220.369 45.0687C220.61 44.8814 220.878 44.694 221.119 44.4798C224.519 41.5618 226.446 36.8501 226.366 31.5495C226.312 27.0787 225.402 21.2159 223.073 18.1105C221.788 16.5578 219.673 15.5137 217.371 15.4334ZM15.3046 101.18L34.0442 113.147C33.0269 115.315 32.3308 117.752 31.849 120.643C24.7279 119.84 17.6069 119.01 10.4858 118.207C11.1016 111.621 12.681 106.026 15.3046 101.18ZM10.2717 122.249C17.3124 123.052 24.3531 123.855 31.3939 124.658C31.26 126.425 31.1797 128.192 31.1529 129.906C27.9136 128.969 24.1657 128.674 19.9627 129.049C17.2321 129.29 13.7519 129.906 10.4591 131.405C10.2449 128.058 10.1914 125.033 10.2717 122.249ZM39.318 144.763C39.7196 148.404 38.8361 152.473 36.8016 156.543C36.2126 157.694 35.3292 158.577 34.7402 158.55C33.83 158.497 32.9198 157.828 32.6253 156.971C32.1702 155.632 32.7859 153.946 33.4284 152.152C34.2851 149.823 35.2489 147.173 34.1513 144.442C32.6521 140.667 28.5026 139.115 25.1027 138.901C21.2209 138.66 15.8132 139.704 13.4039 143.398C11.6905 145.995 12.1456 148.993 12.5204 151.643C12.574 151.938 12.6007 152.259 12.6543 152.554L12.681 152.661C12.9755 154.936 13.2968 157.319 12.1724 158.604C11.6905 159.139 10.8339 159.461 9.84334 159.407C8.74573 159.38 7.75521 158.925 7.24656 158.256C5.82771 156.382 4.81042 151.911 4.70334 147.173C4.62302 143.13 6.04188 139.436 8.50479 137.321C8.93313 136.946 9.36146 136.625 9.81656 136.331C13.1094 134.135 17.2589 133.332 20.3107 133.064C21.3816 132.957 22.4256 132.931 23.4161 132.931C26.8696 132.931 29.8411 133.493 32.3308 134.644C32.3308 134.644 32.3576 134.644 32.3576 134.671C32.7859 134.885 33.2143 135.099 33.6158 135.313C36.6945 137.053 38.8629 140.694 39.318 144.763ZM36.0788 109.694L17.4195 97.7805C18.0084 96.9506 18.6242 96.1475 19.2667 95.3711C22.8807 91.061 27.2979 87.3667 32.1702 84.5825C34.6867 89.7225 37.2031 94.8893 39.7196 100.029L41.6471 103.991C39.5857 105.464 37.7118 107.364 36.0788 109.694ZM45.1541 102.01L43.3336 98.2624C40.8172 93.0956 38.274 87.9288 35.7575 82.7621C40.9243 80.4062 46.3855 79.1212 51.7397 78.9874C51.6861 86.0817 51.7129 93.2295 51.82 100.324C49.4642 100.538 47.2154 101.1 45.1541 102.01ZM65.366 154.16C74.4414 154.481 83.5434 155.391 92.4849 156.891C91.1731 162.191 90.4771 167.197 90.1023 172.498C80.8128 172.177 71.4698 172.471 62.2339 173.381C62.6622 166.341 63.7063 159.996 65.366 154.16ZM62.0732 177.424C71.2824 176.514 80.6522 176.192 89.9149 176.514C89.7543 180.556 89.7543 184.866 89.8346 189.712C89.2992 189.444 88.7637 189.176 88.2283 188.935C80.8128 185.642 70.9076 185.589 63.6259 188.801C63.1708 188.989 62.7157 189.203 62.2874 189.444C62.0465 185.214 61.9661 181.225 62.0732 177.424ZM95.9651 203.445C90.6912 203.365 85.2568 203.365 79.9026 203.365C78.6711 203.365 77.4397 203.365 76.2082 203.365C69.6494 203.365 62.8764 203.365 56.371 203.284C56.5317 200.099 58.4324 196.966 61.5646 194.611C61.6181 194.557 61.6984 194.53 61.752 194.477C62.796 193.727 63.9472 193.058 65.2322 192.496C71.5501 189.712 80.1435 189.765 86.5953 192.63C88.0677 193.272 89.4062 194.075 90.5842 194.959C90.6645 195.012 90.718 195.066 90.7983 195.119C93.7431 197.422 95.6439 200.42 95.9651 203.445ZM93.5557 152.982C84.6946 151.483 75.646 150.546 66.651 150.171C67.2668 148.404 67.9628 146.691 68.7124 145.004C77.7877 144.977 87.0236 144.924 96.2864 144.817C95.2155 147.708 94.3053 150.412 93.5557 152.982ZM134.247 153.491C133.069 150.385 131.624 147.253 129.911 144.067C139.548 143.719 149.132 143.291 158.555 142.675C159.921 145.486 161.072 148.136 162.062 150.68L134.247 153.491ZM167.952 195.842C170.923 198.171 172.797 201.143 173.119 204.168C167.845 204.087 162.41 204.088 157.056 204.088C155.825 204.088 154.593 204.088 153.362 204.088C146.803 204.088 140.03 204.088 133.525 204.007C133.685 200.929 135.452 197.903 138.397 195.601C138.45 195.574 138.504 195.521 138.557 195.467C139.682 194.611 140.967 193.834 142.386 193.219C148.704 190.434 157.297 190.488 163.749 193.352C165.221 193.995 166.56 194.798 167.764 195.708C167.791 195.735 167.872 195.789 167.952 195.842ZM167.202 190.568C166.613 190.247 165.998 189.952 165.355 189.658C157.94 186.365 148.034 186.312 140.753 189.524C140.271 189.738 139.816 189.952 139.361 190.193C139.468 185.616 139.414 181.279 139.12 177.129C148.489 176.701 157.94 176.942 167.283 177.799C167.39 181.707 167.336 185.91 167.202 190.568ZM163.481 154.588C165.623 161.04 166.667 167.063 167.095 173.756C157.699 172.926 148.195 172.712 138.798 173.14C138.236 167.733 137.219 162.539 135.613 157.399L163.481 154.588ZM170.897 133.038C170.87 135.688 168.782 137.937 166.131 138.124C153.174 139.088 139.869 139.73 126.484 140.159C126.457 140.159 126.457 140.159 126.43 140.159C104.96 140.855 83.249 140.989 62.3677 141.015C59.6639 141.015 57.4151 138.901 57.2277 136.197C55.4876 108.998 55.2467 76.2568 56.5852 48.6025C57.0671 38.8579 57.8702 29.5149 62.7157 22.0726C67.3471 14.9248 74.7358 11.1233 80.1168 9.19583C87.5323 6.51875 95.5635 5.71562 102.444 5.26052C107.396 4.93927 112.188 4.77864 116.927 4.77864C125.627 4.77864 134.167 5.31406 143.403 6.43844C149.908 7.21479 158.796 9.41 164.311 15.4067C168.835 20.3325 171.084 29.622 170.95 42.9806C170.816 57.8117 170.87 73.1781 170.923 88.0627C170.95 92.4531 170.95 96.8971 170.977 101.368C170.95 101.448 170.95 101.555 170.95 101.636C170.95 101.769 170.95 101.93 170.977 102.064C171.004 112.397 171.004 122.865 170.897 133.038ZM174.993 99.6545C174.993 95.7459 174.966 91.8642 174.966 88.0092C174.966 84.7967 174.939 81.5574 174.939 78.3181C177.348 78.104 179.597 77.5418 181.685 76.6583L183.666 80.7543C186.102 85.8139 188.565 90.9004 191.028 95.9601C185.808 98.2892 180.347 99.5474 174.993 99.6545ZM207.519 83.4046C203.878 87.7147 199.434 91.3823 194.562 94.1397C192.126 89.1068 189.69 84.0471 187.254 78.9874L185.166 74.6773C187.254 73.2049 189.128 71.3042 190.761 69.0019L209.366 80.9952C208.777 81.8251 208.162 82.6282 207.519 83.4046ZM211.508 77.5953L192.795 65.5484C193.813 63.38 194.535 60.9439 195.017 58.0526C202.138 58.8825 209.259 59.7392 216.38 60.5691C215.765 67.1815 214.158 72.7766 211.508 77.5953ZM216.621 56.5802C209.581 55.7503 202.54 54.9204 195.499 54.0905C195.66 52.3236 195.713 50.5568 195.767 48.8434C198.123 49.5395 200.773 49.8875 203.664 49.8875C204.735 49.8875 205.833 49.834 206.957 49.7536C209.688 49.5127 213.168 48.9237 216.461 47.4514C216.675 50.7442 216.728 53.7693 216.621 56.5802ZM218.468 41.535C218.04 41.883 217.612 42.231 217.13 42.5255C213.837 44.694 209.688 45.4971 206.609 45.738C201.844 46.1396 197.855 45.6042 194.669 44.1585C194.642 44.1318 194.589 44.1318 194.562 44.105C194.134 43.8908 193.705 43.6767 193.331 43.4625C190.279 41.6689 188.11 38.0012 187.655 33.9321C187.28 30.2912 188.164 26.2489 190.225 22.1797C190.814 21.0285 191.724 20.1451 192.313 20.1986C193.224 20.2522 194.134 20.9482 194.428 21.8049C194.883 23.1434 194.268 24.83 193.598 26.6236C192.742 28.9527 191.778 31.603 192.849 34.3336C194.348 38.1083 198.471 39.6878 201.871 39.902C205.752 40.1697 211.16 39.1524 213.596 35.458C215.309 32.8613 214.881 29.8629 214.506 27.2126C214.453 26.9181 214.426 26.5969 214.373 26.3024L214.346 26.1953C214.051 23.9198 213.73 21.5372 214.881 20.2522C215.363 19.7168 216.22 19.3955 217.21 19.4491C218.308 19.5026 219.298 19.9309 219.807 20.627C221.226 22.5277 222.243 26.9717 222.297 31.7101C222.377 35.7525 220.931 39.4201 218.468 41.535Z" fill="#0DCAF0"/>
</svg>
